<svg xmlns="http://www.w3.org/2000/svg" xmlns:xlink="http://www.w3.org/1999/xlink" height="800px" width="800px" version="1.1" id="Capa_1" viewBox="0 0 125 125" xml:space="preserve">
<g>
	<g>
		<circle style="fill:#673ab7;" cx="62.5" cy="62.5" r="62.5"/>
	</g>
	<g>
		<g>
			<polygon style="fill:#FFFFFF;" points="50,100 25,87.741 25,25 50,37.26    "/>
		</g>
		<g>
			<polygon style="fill:#C9C9C9;" points="50,100 75,87.741 75,25 50,37.26    "/>
		</g>
		<g>
			<polygon style="fill:#FFFFFF;" points="100,100 75,87.741 75,25 100,37.26    "/>
		</g>
		<g>
			<g>
				<path style="fill:#673ab7;" d="M40.576,66.661c0,2.582-3.076,5.924-3.076,5.924s-3.076-3.494-3.076-5.924      c0-1.699,1.377-3.076,3.076-3.076C39.199,63.585,40.576,64.962,40.576,66.661z"/>
			</g>
			<g>
				<circle style="fill:#FFFFFF;" cx="37.5" cy="66.547" r="1.367"/>
			</g>
		</g>
		<g>
			<g>
				<path style="fill:#673ab7;" d="M66.794,63.585c0,2.582-3.076,5.924-3.076,5.924s-3.076-3.493-3.076-5.924      c0-1.699,1.377-3.076,3.076-3.076C65.418,60.509,66.794,61.886,66.794,63.585z"/>
			</g>
			<g>
				<circle style="fill:#C9C9C9;" cx="63.719" cy="63.471" r="1.367"/>
			</g>
		</g>
		<g>
			<g>
				<path style="fill:#673ab7;" d="M83.66,44.68c0,2.583-3.076,5.925-3.076,5.925s-3.076-3.494-3.076-5.925      c0-1.698,1.377-3.075,3.076-3.075S83.66,42.981,83.66,44.68z"/>
			</g>
			<g>
				<circle style="fill:#FFFFFF;" cx="80.584" cy="44.567" r="1.367"/>
			</g>
		</g>
		<g>
			<g>
				<path style="fill:#ff8b00;" d="M75,30.225v0.581V40.99l2.818-1.904c1.403-0.948,3.164-1.097,4.693-0.397l3.212,1.468      c0.399,0.184,0.866,0.072,1.152-0.273l1.575-1.9l6.05,2.966v0.141l-4.689,4.458c-0.614,0.583-0.823,1.504-0.526,2.316      l1.927,5.281c0.441,1.21,0.443,2.549,0.004,3.76l-2.369,6.545c-0.326,0.9-0.029,1.919,0.721,2.473l4.933,3.641v14.358      l-5.217-4.572c-0.243-0.214-0.376-0.535-0.358-0.868l0.329-6.165c0.032-0.604-0.424-1.112-0.998-1.112h-0.721      c-0.431,0-0.813-0.29-0.949-0.72l-1.563-4.95c-0.094-0.297-0.308-0.535-0.585-0.648l-5.202-2.142      c-0.36-0.148-0.769-0.065-1.05,0.214L75,66.117v6.402l4.979,3.155c0.264,0.167,0.44,0.453,0.477,0.774l0.93,8.038L75,81.355      v1.139l-7.832,3.863L75,82.517l20.5,10.052v-52.29L75,30.225z"/>
			</g>
			<g>
				<polygon style="fill:#ff8b00;" points="53.127,92.09 61.907,87.791 61.9,87.779 53.129,92.08     "/>
			</g>
			<g>
				<path style="fill:#ff8b00;" d="M50,59.951l-3.407,2.109c-1.222,0.757-1.972,2.137-1.972,3.629v6.449      c0,0.854-0.49,1.623-1.241,1.947l-5.594,2.415c-1.943,0.839-2.938,3.116-2.28,5.215l1.777,5.663L30.5,84.053V43.769l3.59,13.319      c0.158,0.585,0.548,1.07,1.071,1.33l4.489,2.228c0.945,0.47,2.075,0.094,2.592-0.863l2.339-4.33      c0.727-1.345,1.637-2.569,2.701-3.635L50,49.097v-6.032v-0.578l6.25-3.067L50,42.484L29.5,32.433v52.29L50,94.775v-0.581V59.951      z"/>
			</g>
			<g>
				<path style="fill:#ff8b00;" d="M50,43.064v6.032l5.399,1.827c1.711,0.579,3.567,0.444,5.185-0.378l0.931-0.473      c1.042-0.528,2.29-0.021,2.724,1.106l2.583,6.725c0.497,1.295,2.033,1.729,3.081,0.873l0.287-0.234      c0.544-0.444,0.832-1.151,0.764-1.872l-0.578-6.059c-0.041-0.424,0.042-0.851,0.237-1.224L75,40.99V30.806v-0.581v-0.006      l-18.75,9.2L50,42.486V43.064z"/>
			</g>
			<g>
				<path style="fill:#ff8b00;" d="M75,81.355L75,81.355l-1.437-3.415c-0.349-0.828-1.161-1.329-2.018-1.243l-2.79,0.279      c-0.397,0.039-0.796-0.047-1.146-0.248l-1.757-1.007c-0.843-0.484-1.895-0.269-2.504,0.514l-3.73,4.79      c-0.533,0.685-0.602,1.648-0.172,2.41l2.454,4.344l0.007,0.012l-8.78,4.299l0.001-0.01l1.539-12.101      c0.094-0.739,0.435-1.421,0.96-1.922l3.731-3.555c0.967-0.921,1.257-2.394,0.72-3.643l-3.083-7.165      c-0.33-0.765-0.935-1.36-1.683-1.654L50,59.951v34.243v0.581v0.004l2.97-1.447l0,0l8.625-4.226l5.573-2.749L75,82.494V81.355z"/>
			</g>
			<g>
				<path style="fill:#ff8b00;" d="M68.45,66.379l0.305,4.524c0.034,0.505,0.406,0.913,0.884,0.971L75,72.52v-6.402l-2.342-1.706      c-0.268-0.195-0.61-0.24-0.915-0.122l-2.642,1.027C68.684,65.479,68.419,65.912,68.45,66.379z"/>
			</g>
			<g>
				<path style="fill:#ff8b00;" d="M85.955,51.609l-3.509,1.367c-0.492,0.192-0.799,0.709-0.749,1.258l0.474,5.173      c0.088,0.964,1.159,1.438,1.876,0.831l3.707-3.144c0.338-0.286,0.495-0.748,0.406-1.195l-0.671-3.397      C87.344,51.775,86.618,51.351,85.955,51.609z"/>
			</g>
		</g>
	</g>
</g>
</svg>